<?xml version="1.0" encoding="UTF-8"?>
<svg width="40px" height="40px" viewBox="0 0 40 40" version="1.1" xmlns="http://www.w3.org/2000/svg" xmlns:xlink="http://www.w3.org/1999/xlink">
    <!-- Generator: Sketch 58 (84663) - https://sketch.com -->
    <title>icon_quick</title>
    <desc>Created with Sketch.</desc>
    <g id="icon_quick" stroke="none" stroke-width="1" fill="none" fill-rule="evenodd" stroke-linecap="round" stroke-linejoin="round">
        <g id="Group-15" transform="translate(2.000000, 5.000000)" stroke-width="1.5">
            <path d="M1.66666667,11.6663333 L1.66666667,11.6663333" id="Stroke-1" stroke="#323232"></path>
            <path d="M3.33333333,6.66633333 L1.66666667,6.66633333" id="Stroke-3" stroke="#3C3C3B"></path>
            <path d="M5,1.66633333 L1.66666667,1.66633333" id="Stroke-5" stroke="#3C3C3B"></path>
            <path d="M27.3975,21.6663333 L9.74916667,21.6663333 C7.07083333,21.6663333 5.1475,19.0846667 5.9175,16.518 L9.5175,4.51633333 C10.0258333,2.82466667 11.5825,1.66633333 13.3491667,1.66633333 L30.9975,1.66633333 C33.6775,1.66633333 35.5991667,4.24966667 34.8275,6.81633333 L31.2291667,18.8163333 C30.7208333,20.508 29.1641667,21.6663333 27.3975,21.6663333 Z" id="Stroke-7" stroke="#3C3C3B"></path>
            <path d="M26.6666667,28.333 L3.33333333,28.333" id="Stroke-9" stroke="#3C3C3B"></path>
            <path d="M8.73283333,8.127 L33.6911667,8.127" id="Stroke-11" stroke="#3C3C3B"></path>
            <path d="M11.302,12.8495 L15.1903333,12.8495" id="Stroke-13" stroke="#3C3C3B"></path>
        </g>
    </g>
</svg>